<svg height="512pt" viewBox="-13 0 512 512" width="512pt" xmlns="http://www.w3.org/2000/svg"><path d="m58.285156 451.59375h115.324219v51.921875h-115.324219zm0 0" fill="#e63950"/><path d="m153.570312 451.59375h20.039063v51.921875h-20.039063zm0 0" fill="#cc2e43"/><path d="m7.546875 227.082031c-.507813 10.574219 2.082031 21.066407 7.449219 30.191407l61.144531 103.96875c7.519531 12.789062 3.332031 36.707031 3.132813 51.570312-.179688 13.304688-.359376 26.609375-.539063 39.914062l81.90625-.136718-.082031-40.335938c-.003906-5.9375 1.046875-11.824218 3.117187-17.390625 2.273438-6.105469 4.542969-12.199219 6.660157-18.339843 1.84375-5.347657 2.851562-10.972657 2.972656-16.628907.234375-11.066406-2.960938-22.09375-9.082032-31.320312 0 0 0 0-.003906-.003907-8.414062-12.675781-15.644531-26.105468-21.597656-40.109374l-36.800781-86.582032c-4.644531-10.925781-16.546875-16.546875-27.699219-13.636718l-6.675781-115.289063c-.894531-15.464844-13.871094-27.785156-29.351563-27.148437-14.851562.605468-26.46875 12.40625-27.164062 26.910156l-1.457032 30.484375zm0 0" fill="#fed2a4"/><path d="m173.308594 359.890625c-.121094 5.660156-1.128906 11.289063-2.976563 16.628906-2.113281 6.148438-4.390625 12.234375-6.65625 18.34375-2.066406 5.570313-3.121093 11.457031-3.113281 17.386719l.082031 40.339844-81.910156.140625v-.039063l55.691406-.101562-.082031-40.339844c0-5.929688 1.046875-11.816406 3.125-17.386719 2.265625-6.109375 4.539062-12.195312 6.65625-18.34375 1.847656-5.339843 2.855469-10.96875 2.972656-16.628906.582032-26.9375-18.042968-46.9375-28.972656-69.882813-11.335938-23.804687-19.570312-48.90625-29.871094-73.136718-2.863281-6.75-8.5-11.472656-15.015625-13.414063-7.738281-2.308593-13.308593-9.058593-13.882812-17.113281l-8.078125-113.390625c-.667969-11.550781-8.074219-21.351563-18.234375-25.292969 2.8125-1.078125 5.859375-1.726562 9.050781-1.855468 15.480469-.640626 28.453125 11.675781 29.351562 27.148437l6.679688 115.292969c11.15625-2.914063 23.054688 2.703125 27.695312 13.632812l36.808594 86.582032c2.972656 7.007812 6.265625 13.863281 9.871094 20.550781 3.601562 6.695312 7.515625 13.222656 11.726562 19.558593 6.117188 9.234376 9.320313 20.253907 9.082032 31.320313zm0 0" fill="#ffbd86"/><path d="m173.421875 452.589844h-115.136719l.183594-27.457032c.039062-5.324218 4.382812-9.613281 9.707031-9.578124l95.855469.640624c5.324219.039063 9.609375 4.382813 9.578125 9.707032zm0 0" fill="#fff5f5"/><path d="m173.609375 425.902344-.179687 26.6875h-19.753907l.191407-26.6875c.027343-5.320313-4.253907-9.671875-9.582032-9.703125h19.75c5.320313.03125 9.613282 4.382812 9.574219 9.703125zm0 0" fill="#efe2dd"/><path d="m176.15625 412.8125c-2.214844-2.246094-4.945312-3.785156-7.925781-4.546875.339843-3.6875 1.164062-7.304687 2.460937-10.792969l.132813-.359375c2.203125-5.921875 4.480469-12.042969 6.585937-18.148437 2.105469-6.101563 3.246094-12.464844 3.382813-18.910156.269531-12.53125-3.398438-25.179688-10.332031-35.625-4.71875-7.109376-9.105469-14.550782-13.039063-22.125-1.90625-3.667969-6.421875-5.101563-10.09375-3.191407-3.667969 1.90625-5.09375 6.425781-3.191406 10.09375 4.175781 8.039063 8.832031 15.941407 13.839843 23.488281.007813.011719.015626.023438.023438.035157 5.25 7.917969 8.027344 17.503906 7.824219 27.003906-.101563 4.890625-.964844 9.71875-2.5625 14.347656-2.050781 5.933594-4.292969 11.972657-6.46875 17.8125l-.132813.359375c-1.847656 4.96875-2.976562 10.125-3.394531 15.390625l-66.28125-.445312c.101563-1.804688.226563-3.695313.359375-5.636719 1.015625-15.164062 2.167969-32.347656-4.75-44.113281l-61.144531-103.96875c-4.640625-7.890625-6.863281-16.898438-6.425781-26.039063l7.386718-154.367187c.519532-10.839844 9.113282-19.347657 19.992188-19.792969 11.242187-.464844 20.90625 8.5625 21.574218 20.105469l6.359376 109.816406c-.328126.160156-.660157.316406-.984376.488281-14.066406 7.503906-20.097656 25.121094-13.726562 40.105469l45.539062 107.136719c1.210938 2.847656 3.980469 4.558594 6.890626 4.558594.976562 0 1.96875-.191407 2.925781-.601563 3.804687-1.617187 5.578125-6.011719 3.960937-9.816406l-45.539062-107.136719c-3.363282-7.910156-.292969-17.152344 6.996094-21.039062 3.660156-1.949219 6.609374-2.425782 10.726562-1.621094.027344.003906.054688.007812.082031.015625.441407.089843.882813.199219 1.316407.324219.023437.007812.042968.015624.066406.019531 7.769531 2.269531 10.503906 9.539062 13.320312 16.164062 3.53125 8.304688 7.058594 16.609375 10.589844 24.914063 5.691406 13.386718 11.378906 26.773437 17.070312 40.15625 1.617188 3.808594 6.011719 5.582031 9.816407 3.960937 3.804687-1.617187 5.574219-6.011719 3.957031-9.816406l-30.628906-72.066406c-3.253906-7.648438-10.441406-14.40625-18.292969-17.175781-2.976563-1.050782-6.078125-1.625-9.1875-1.738282-.03125 0-.058594-.003906-.089844-.003906l-6.222656-107.511719c-1.136719-19.644531-17.800781-34.976562-37.132813-34.195312-18.679687.765625-33.4375 15.394531-34.332031 34.035156l-7.3867185 154.363281c-.5742185 12.0625 2.3515625 23.9375 8.4726565 34.34375l61.144531 103.96875c4.578125 7.785156 3.546875 23.164063 2.71875 35.523438-.152344 2.253906-.296875 4.4375-.410156 6.539062l-3.769532-.023437c-.039062 0-.078124 0-.117187 0-9.390625 0-17.0625 7.605469-17.125 17.011719l-.183594 79.429687c0 4.136719 3.351563 7.484375 7.484375 7.484375h115.136719c4.136719 0 7.484375-3.347656 7.484375-7.484375v-51.101563l.1875-27.460937c.027344-4.574219-1.722656-8.886719-4.9375-12.140625zm-10.21875 83.21875h-100.164062v-36.902344l100.164062.671875zm.054688-51.589844-100.167969-.667968.132812-19.589844c.007813-1.183594.972657-2.140625 2.152344-2.140625h.015625l95.855469.640625c.738281.007812 1.234375.351562 1.519531.644531.289062.289063.628906.789063.621094 1.527344zm0 0"/><path d="m312.199219 504.515625v-51.152344l115.136719-.773437v51.925781zm0 0" fill="#e63950"/><path d="m312.199219 504.515625v-51.152344l115.136719-.773437v51.925781zm0 0" fill="#e63950"/><path d="m407.179688 452.71875h20.164062v51.800781h-20.164062zm0 0" fill="#cc2e43"/><path d="m478.078125 227.082031c.503906 10.574219-2.082031 21.066407-7.449219 30.191407l-61.144531 103.96875c-7.519531 12.789062-3.332031 36.707031-3.132813 51.570312.179688 13.304688.359376 26.609375.539063 39.914062l-81.90625-.136718.082031-40.335938c.003906-5.9375-1.046875-11.824218-3.117187-17.390625-2.273438-6.105469-4.542969-12.199219-6.660157-18.339843-1.847656-5.347657-2.851562-10.972657-2.972656-16.628907-.238281-11.066406 2.960938-22.09375 9.082032-31.320312 0 0 0 0 .003906-.003907 8.410156-12.675781 15.644531-26.105468 21.59375-40.109374l36.804687-86.582032c4.644531-10.925781 16.542969-16.546875 27.699219-13.636718l6.675781-115.285157c.894531-15.46875 13.871094-27.785156 29.351563-27.152343 14.851562.609374 26.46875 12.40625 27.164062 26.910156l1.457032 30.484375zm0 0" fill="#fed2a4"/><path d="m470.628906 257.273438-61.140625 103.964843c-7.527343 12.796875-3.335937 36.707031-3.136719 51.570313.179688 13.3125.359376 26.617187.539063 39.921875l-22.714844-.039063c-.179687-13.296875-.359375-26.578125-.539062-39.882812-.199219-14.863282-4.390625-38.773438 3.125-51.570313l61.148437-103.964843c5.371094-9.125 7.957032-19.613282 7.445313-30.191407l-5.925781-123.878906-1.457032-30.492187c-.53125-10.90625-7.226562-20.28125-16.839844-24.511719 3.785157-1.707031 7.984376-2.574219 12.398438-2.394531 14.851562.609374 26.46875 12.40625 27.15625 26.90625l1.457031 30.492187 5.929688 123.878906c.507812 10.578125-2.078125 21.066407-7.445313 30.191407zm0 0" fill="#ffbd86"/><path d="m312.199219 453.363281 115.136719-.773437-.183594-27.457032c-.035156-5.324218-4.378906-9.613281-9.703125-9.578124l-95.855469.640624c-5.324219.039063-9.613281 4.382813-9.578125 9.707032zm0 0" fill="#fff5f5"/><path d="m427.335938 425.257812-.179688 27.453126h-19.75l.1875-27.453126c.03125-5.320312-4.25-9.671874-9.578125-9.703124h19.75c5.320313.03125 9.609375 4.382812 9.570313 9.703124zm0 0" fill="#efe2dd"/><path d="m477.082031 261.066406c6.117188-10.40625 9.050781-22.28125 8.472657-34.34375l-7.386719-154.363281c-.894531-18.640625-15.652344-33.269531-34.335938-34.035156-19.34375-.792969-35.992187 14.546875-37.128906 34.195312l-6.226563 107.511719c-.023437 0-.046874.003906-.070312.003906-3.117188.113282-6.222656.683594-9.203125 1.738282-9.285156 3.277343-15.339844 10.441406-19.160156 19.222656-6.8125 15.65625-13.359375 31.433594-20.039063 47.144531-5.296875 12.464844-10.597656 24.929687-15.894531 37.394531-2.878906 6.773438-6.078125 13.429688-9.578125 19.925782-7.644531 14.199218-18.019531 26.613281-20.816406 42.886718-1.839844 10.703125-1.050782 20.332032 2.5 30.621094 2.453125 7.109375 5.496094 14.042969 7.632812 21.261719.019532.070312.042969.136719.0625.207031.832032 2.875 1.351563 5.820312 1.558594 8.808594-3.007812.753906-5.765625 2.300781-8 4.566406-3.214844 3.253906-4.964844 7.566406-4.9375 12.140625l.1875 27.460937v51.101563c0 4.132813 3.351562 7.484375 7.484375 7.484375h115.136719c4.132812 0 7.484375-3.351562 7.484375-7.484375 0 0 0-51.925781 0-51.972656l-.183594-27.460938c-.0625-9.40625-7.734375-17.011719-17.125-17.011719-.039063 0-.078125 0-.117187 0l-3.71875.023438c-.117188-2.40625-.28125-4.917969-.457032-7.535156-.832031-12.359375-1.863281-27.738282 2.714844-35.523438zm-57.230469 235.960938h-100.164062v-36.230469l100.164062-.671875zm-2.351562-73.988282h.011719c1.183593 0 2.148437.957032 2.15625 2.140626l.132812 19.976562-100.164062.671875-.132813-19.976563c-.007812-.734374.332032-1.238281.621094-1.527343.285156-.289063.78125-.636719 1.519531-.640625zm-14.46875-65.589843c-6.917969 11.765625-5.765625 28.949219-4.75 44.113281.15625 2.3125.300781 4.53125.410156 6.632812 0 0-66.257812.445313-66.261718.445313.453124-.003906-2.167969-12.359375-2.589844-13.738281-1.148438-3.765625-2.671875-7.464844-4.023438-11.164063-2.582031-7.035156-5.855468-16.464843-6.015625-24.003906-.195312-9.03125 2.191407-17.8125 6.886719-25.53125.054688-.085937.113281-.171875.164062-.257813.257813-.417968.519532-.832031.789063-1.242187 3.277344-4.933594 6.375-9.984375 9.296875-15.136719 4.847656-8.542968 9.097656-17.117187 12.949219-26.175781 5.367187-12.628906 10.734375-25.253906 16.101562-37.882813 4.859375-11.429687 9.355469-23.011718 14.28125-34.410156 2.59375-6 4.367188-12.5625 8.425781-17.808594 4.773438-6.175781 13.601563-8.082031 20.53125-4.386718 7.289063 3.886718 10.359376 13.125 6.996094 21.039062l-45.539062 107.132813c-1.617188 3.804687.15625 8.199219 3.960937 9.816406 3.804688 1.621094 8.199219-.15625 9.816407-3.960937l45.539062-107.132813c6.371094-14.988281.339844-32.601563-13.726562-40.105469-.324219-.171875-.65625-.328125-.984376-.492187l6.359376-109.8125c.667968-11.546875 10.359374-20.578125 21.570312-20.105469 10.878906.445312 19.472656 8.953125 19.992188 19.792969l7.386718 154.363281c.4375 9.144531-1.78125 18.148438-6.421875 26.039062zm0 0"/><path d="m364.652344 129.324219c0 67.292969-54.550782 121.839843-121.839844 121.839843s-121.839844-54.546874-121.839844-121.839843c0-67.289063 54.550782-121.839844 121.839844-121.839844s121.839844 54.550781 121.839844 121.839844zm0 0" fill="#fff1af"/><path d="m364.652344 129.320312c0 64.265626-49.742188 116.894532-112.816406 121.503907 51.617187-14.140625 89.554687-61.390625 89.554687-117.511719 0-67.289062-54.554687-121.832031-121.84375-121.832031-3.035156 0-6.046875.109375-9.023437.339843 10.28125-2.824218 21.109374-4.332031 32.289062-4.332031 67.289062 0 121.839844 54.542969 121.839844 121.832031zm0 0" fill="#ffea7e"/><path d="m321.160156 129.324219c0 43.269531-35.078125 78.347656-78.347656 78.347656s-78.347656-35.078125-78.347656-78.347656 35.078125-78.347657 78.347656-78.347657 78.347656 35.078126 78.347656 78.347657zm0 0" fill="#ffa812"/><path d="m321.160156 129.320312c0 43.277344-35.082031 78.347657-78.347656 78.347657-9.074219 0-17.777344-1.535157-25.878906-4.382813.867187.042969 1.734375.050782 2.613281.050782 43.265625 0 78.347656-35.070313 78.347656-78.347657 0-34.203125-21.917969-63.285156-52.476562-73.964843 42.058593 1.367187 75.742187 35.902343 75.742187 78.296874zm0 0" fill="#ff9a00"/><path d="m242.8125 0c-71.3125 0-129.324219 58.015625-129.324219 129.324219 0 71.3125 58.011719 129.328125 129.324219 129.328125 36.363281 0 71.253906-15.445313 95.726562-42.367188 2.78125-3.058594 2.554688-7.792968-.503906-10.574218s-7.796875-2.554688-10.574218.503906c-21.640626 23.808594-52.496094 37.464844-84.648438 37.464844-63.054688 0-114.355469-51.296876-114.355469-114.355469 0-63.054688 51.300781-114.351563 114.355469-114.351563s114.355469 51.296875 114.355469 114.351563c0 17.398437-3.804688 34.097656-11.304688 49.640625-1.796875 3.722656-.238281 8.199218 3.484375 9.996094 3.722656 1.796874 8.199219.234374 9.996094-3.488282 8.492188-17.585937 12.792969-36.480468 12.792969-56.148437 0-71.308594-58.015625-129.324219-129.324219-129.324219zm0 0"/><path d="m258.683594 131.089844c-3.882813-3.5-8.085938-5.921875-12.148438-8.261719-3.539062-2.039063-6.882812-3.964844-9.578125-6.386719-2.773437-2.5-3.246093-6.277344-1.199219-9.625 1.238282-2.03125 3.84375-3.398437 6.792969-3.570312 2.027344-.117188 4.617188.976562 6.285157 2.671875.726562.738281 1.574218 1.882812 1.484374 3.144531-.296874 4.121094 2.804688 7.707031 6.925782 8.003906 4.128906.3125 7.707031-2.804687 8.007812-6.925781.386719-5.347656-1.660156-10.582031-5.757812-14.734375-2.570313-2.605469-5.78125-4.597656-9.199219-5.808594v-4.871094c0-4.136718-3.351563-7.484374-7.484375-7.484374s-7.484375 3.347656-7.484375 7.484374v4.769532c-5.195313 1.6875-9.597656 5.015625-12.347656 9.515625-5.796875 9.492187-4.167969 21.230469 3.960937 28.550781 3.867188 3.484375 8.0625 5.902344 12.121094 8.238281 3.546875 2.042969 6.894531 3.972657 9.601562 6.410157 2.777344 2.5 3.25 6.277343 1.203126 9.625-1.242188 2.03125-3.84375 3.398437-6.792969 3.570312-2.023438.121094-4.617188-.980469-6.285157-2.671875-.730468-.738281-1.574218-1.882813-1.484374-3.144531.296874-4.121094-2.804688-7.707032-6.925782-8.003906-4.125-.304688-7.707031 2.804687-8.007812 6.925781-.386719 5.347656 1.660156 10.578125 5.757812 14.734375 2.570313 2.605468 5.78125 4.59375 9.199219 5.804687v4.875c0 4.132813 3.351563 7.484375 7.484375 7.484375s7.484375-3.351562 7.484375-7.484375v-4.769531c5.195313-1.6875 9.597656-5.015625 12.347656-9.519531 5.796875-9.488281 4.167969-21.230469-3.960937-28.546875zm0 0"/><path d="m242.8125 43.492188c-47.328125 0-85.832031 38.503906-85.832031 85.832031s38.503906 85.832031 85.832031 85.832031 85.832031-38.503906 85.832031-85.832031-38.503906-85.832031-85.832031-85.832031zm0 156.695312c-39.074219 0-70.863281-31.789062-70.863281-70.863281 0-39.070313 31.789062-70.859375 70.863281-70.859375s70.863281 31.789062 70.863281 70.859375c0 39.074219-31.789062 70.863281-70.863281 70.863281zm0 0"/></svg>