<?xml version="1.0" encoding="iso-8859-1"?>
<!-- Generator: Adobe Illustrator 19.0.0, SVG Export Plug-In . SVG Version: 6.00 Build 0)  -->
<svg version="1.1" id="Capa_1" xmlns="http://www.w3.org/2000/svg" xmlns:xlink="http://www.w3.org/1999/xlink" x="0px" y="0px"
	 viewBox="0 0 512 512" style="enable-background:new 0 0 512 512;" xml:space="preserve">
<path style="fill:#303C42;" d="M468.246,375.398c0.393-2.017,1.087-3.98,1.087-6.065c0-36.865-27.823-84.51-35.146-96.406
	c-0.342-80.199-14.589-138.668-73.19-158.664c2.671-8.352,7.497-19.483,11.982-29.742c8.604-19.688,16.729-38.281,16.729-50.625
	C389.708,17.021,379.229,0,355.802,0c-15.688,0-21.521,7.406-24.698,13.76c-0.167-0.188-0.333-0.385-0.49-0.563
	C326.25,8.26,318.948,0,301.583,0c-19.531,0-32.208,17.01-38.354,30.948c-7.927,0.396-19.448,2.281-26.958,9.26
	c-4.781,4.448-7.313,10.302-7.313,16.927c0,11.083,7.969,23.885,16.396,37.427c4.191,6.736,8.589,13.952,11.397,20.06
	c-57.803,20.303-71.931,78.543-72.272,158.315c-3.508,5.714-11.79,20.014-19.457,37.198c-17.01,1.488-31.71,4.819-40.974,7.368
	c-3.212-11.169-12.328-20.174-24.413-22.587L12.76,277.542c-3.125-0.615-6.385,0.188-8.854,2.208C1.437,281.781,0,284.802,0,288
	v170.667c0,5.896,4.771,10.667,10.667,10.667H77.5c13.165,0,24.384-8.382,29.212-20.147C130.587,460.569,241.055,512,288,512
	c41.375,0,126.531-41.865,182.875-69.563c14.708-7.229,26.865-13.208,34.75-16.667C509.5,424.063,512,420.229,512,416
	C512,395.716,494.685,380.557,468.246,375.398z"/>
<g>
	<path style="fill:#D7CCC8;" d="M263.469,83.292c-5.563-8.938-13.177-21.167-12.677-27.448c3.167-2.948,13.115-3.906,19.063-3.563
		c4.958,0.604,9.5-2.792,10.948-7.521c1.885-6.073,9.729-23.427,20.781-23.427c7.75,0,9.74,2.26,13.042,6
		c3.344,3.781,8.396,9.49,17.938,9.49c11.875,0,15.729-9.104,17.177-12.531c0.333-0.781,0.833-1.969,1.052-2.219
		c0.01-0.01,1.135-0.74,5.01-0.74c3.438,0,12.573,0,12.573,12.563c0,7.885-8.281,26.844-14.938,42.083
		c-5.275,12.055-10.21,23.53-13.138,33.204c-9.443-1.576-19.633-2.517-30.966-2.517c-11.622,0-22.074,0.965-31.711,2.62
		C274.354,101.018,269.102,92.346,263.469,83.292z"/>
	<path style="fill:#D7CCC8;" d="M205.802,276c0-109.271,27.094-148,103.531-148s103.531,38.729,103.531,148
		c0,2.052,0.594,4.063,1.698,5.781c0.333,0.521,33.438,52.302,33.438,87.552c0,1.372-0.27,2.701-0.792,4.033
		c-21.09,0.267-63.467,11.643-85.094,17.857c-2.902-30.612-42.124-41.448-82.656-49.681c-18.5-3.75-32.26-10.385-45.573-16.802
		c-14.388-6.948-28.284-13.241-45.332-14.767c7.897-16.18,15.453-28.056,15.551-28.202C205.208,280.052,205.802,278.042,205.802,276
		z"/>
	<path style="fill:#D7CCC8;" d="M311.539,106.667c-0.331,0-0.616,0.049-0.944,0.052c2.667,0.017,5.134,0.199,7.68,0.316
		C316.043,106.898,313.896,106.667,311.539,106.667z"/>
</g>
<path style="opacity:0.1;enable-background:new    ;" d="M355.802,21.333c-3.875,0-5,0.729-5.01,0.74
	c-0.018,0.021-0.06,0.121-0.082,0.155c2.639,1.112,5.307,3.841,5.307,11.668c0,7.885-6.238,26.844-11.253,42.083
	c-3.891,11.802-7.495,23.001-9.717,32.547c1.728,0.238,3.574,0.378,5.253,0.658c2.928-9.674,7.863-21.15,13.138-33.204
	c6.656-15.24,14.938-34.198,14.938-42.083C368.375,21.333,359.24,21.333,355.802,21.333z"/>
<g>
	<path style="opacity:0.2;fill:#FFFFFF;enable-background:new    ;" d="M276.988,83.292c-4.19-8.938-9.926-21.167-9.549-27.448
		c2.385-2.948,9.879-3.906,14.361-3.563c3.734,0.604,7.156-2.792,8.247-7.521c1.358-5.811,6.854-21.784,14.617-23.165
		c-0.969-0.111-1.848-0.262-3.081-0.262c-11.052,0-18.896,17.354-20.781,23.427c-1.448,4.729-5.99,8.125-10.948,7.521
		c-5.948-0.344-15.896,0.615-19.063,3.563c-0.5,6.281,7.115,18.51,12.677,27.448c5.633,9.055,10.885,17.727,14.154,25.995
		c3.055-0.525,6.35-0.848,9.579-1.224C284.724,100.155,281.027,91.91,276.988,83.292z"/>
	<path style="opacity:0.2;fill:#FFFFFF;enable-background:new    ;" d="M222.88,296.245c0.922-1.88,1.418-4.079,1.418-6.314
		c0-119.142,22.508-161.609,85.868-161.902c-0.288-0.001-0.544-0.029-0.833-0.029c-76.438,0-103.531,38.729-103.531,148
		c0,2.042-0.594,4.052-1.698,5.771c-0.098,0.146-7.654,12.022-15.551,28.202c9.293,0.832,17.624,3.145,25.634,6.143
		C218.979,304.329,222.816,296.368,222.88,296.245z"/>
</g>
<path style="opacity:0.1;enable-background:new    ;" d="M414.563,281.781c-1.104-1.719-1.698-3.729-1.698-5.781
	c0-106.171-25.719-145.629-97.284-147.79c60.137,2.167,81.729,45.27,81.729,161.721c0,2.245,0.496,4.445,1.418,6.326
	c0.242,0.495,21.055,43.168,26.582,79.647c8.329-1.462,15.987-2.464,21.898-2.538c0.522-1.332,0.792-2.66,0.792-4.033
	C448,334.083,414.896,282.302,414.563,281.781z"/>
<path style="fill:#303C42;" d="M309.333,277.333H288c-5.896,0-10.667,4.771-10.667,10.667c0,5.896,4.771,10.667,10.667,10.667
	h10.667c0,5.896,4.771,10.667,10.667,10.667S320,304.563,320,298.667v-1.965c12.389-4.418,21.333-16.147,21.333-30.035
	c0-17.646-14.354-32-32-32c-5.885,0-10.667-4.781-10.667-10.667c0-5.885,4.781-10.667,10.667-10.667h21.333
	c5.896,0,10.667-4.771,10.667-10.667S336.563,192,330.667,192H320c0-5.896-4.771-10.667-10.667-10.667s-10.667,4.771-10.667,10.667
	v1.965c-12.389,4.418-21.333,16.147-21.333,30.035c0,17.646,14.354,32,32,32c5.885,0,10.667,4.781,10.667,10.667
	C320,272.552,315.219,277.333,309.333,277.333z"/>
<path style="fill:#29B6F6;" d="M77.5,448H21.333V301.01l74.125,14.823c5.542,1.115,9.271,6.365,8.458,11.969L88.063,438.844
	C87.313,444.063,82.771,448,77.5,448z"/>
<path style="fill:#FFE082;" d="M461.5,423.271c-51.271,25.208-137.083,67.396-173.5,67.396c-38.792,0-140.688-45.427-176.667-62.927
	c-0.04-0.02-0.085-0.013-0.125-0.031l12.551-87.904c7.772-2.431,31.518-9.138,57.574-9.138c15.75,0,27.896,5.865,43.292,13.281
	c13.813,6.667,29.479,14.219,50.583,18.51c46.354,9.396,66.125,19.031,66.125,32.208c0,2.604-0.792,4.208-2.813,5.719
	c-6.792,5.073-33.271,13.594-132.813-15.948c-5.729-1.646-11.604,1.552-13.271,7.198c-1.667,5.646,1.542,11.583,7.188,13.26
	c49.146,14.563,86.708,21.823,113.333,21.823c17.354,0,30.083-3.083,38.313-9.24c0.708-0.529,3.203-1.74,3.875-1.948
	C374,409.729,427.438,394.667,448,394.667c17.396,0,35.708,5.281,41.083,15.208C481.646,413.375,472.25,418,461.5,423.271z"/>
<linearGradient id="SVGID_1_" gradientUnits="userSpaceOnUse" x1="-42.0636" y1="629.3014" x2="-35.2037" y2="622.4414" gradientTransform="matrix(21.3333 0 0 -21.3333 996.3334 13791.667)">
	<stop  offset="0" style="stop-color:#000000;stop-opacity:0.1"/>
	<stop  offset="1" style="stop-color:#000000;stop-opacity:0"/>
</linearGradient>
<path style="fill:url(#SVGID_1_);" d="M123.428,342.117l-12.22,85.591c0.04,0.018,0.085,0.012,0.125,0.031
	c31.271,15.21,112.292,51.483,158.441,60.724L123.428,342.117z"/>
<path style="opacity:0.1;enable-background:new    ;" d="M21.333,373.333V448H77.5c5.271,0,9.813-3.938,10.563-9.156l9.353-65.51
	H21.333z"/>
<linearGradient id="SVGID_2_" gradientUnits="userSpaceOnUse" x1="-44.2269" y1="638.4061" x2="-22.1296" y2="628.1036" gradientTransform="matrix(21.3333 0 0 -21.3333 996.3334 13791.667)">
	<stop  offset="0" style="stop-color:#FFFFFF;stop-opacity:0.2"/>
	<stop  offset="1" style="stop-color:#FFFFFF;stop-opacity:0"/>
</linearGradient>
<path style="fill:url(#SVGID_2_);" d="M468.246,375.398c0.393-2.017,1.087-3.98,1.087-6.065c0-36.865-27.823-84.51-35.146-96.406
	c-0.342-80.199-14.589-138.668-73.19-158.664c2.671-8.352,7.497-19.483,11.982-29.742c8.604-19.688,16.729-38.281,16.729-50.625
	C389.708,17.021,379.229,0,355.802,0c-15.688,0-21.521,7.406-24.698,13.76c-0.167-0.188-0.333-0.385-0.49-0.563
	C326.25,8.26,318.948,0,301.583,0c-19.531,0-32.208,17.01-38.354,30.948c-7.927,0.396-19.448,2.281-26.958,9.26
	c-4.781,4.448-7.313,10.302-7.313,16.927c0,11.083,7.969,23.885,16.396,37.427c4.191,6.736,8.589,13.952,11.397,20.06
	c-57.803,20.303-71.931,78.543-72.272,158.315c-3.508,5.714-11.79,20.014-19.457,37.198c-17.01,1.488-31.71,4.819-40.974,7.368
	c-3.212-11.169-12.328-20.174-24.413-22.587L12.76,277.542c-3.125-0.615-6.385,0.188-8.854,2.208C1.437,281.781,0,284.802,0,288
	v170.667c0,5.896,4.771,10.667,10.667,10.667H77.5c13.165,0,24.384-8.382,29.212-20.147C130.587,460.569,241.055,512,288,512
	c41.375,0,126.531-41.865,182.875-69.563c14.708-7.229,26.865-13.208,34.75-16.667C509.5,424.063,512,420.229,512,416
	C512,395.716,494.685,380.557,468.246,375.398z"/>
<g>
</g>
<g>
</g>
<g>
</g>
<g>
</g>
<g>
</g>
<g>
</g>
<g>
</g>
<g>
</g>
<g>
</g>
<g>
</g>
<g>
</g>
<g>
</g>
<g>
</g>
<g>
</g>
<g>
</g>
</svg>
