<?xml version="1.0" encoding="iso-8859-1"?>
<!-- Generator: Adobe Illustrator 19.0.0, SVG Export Plug-In . SVG Version: 6.00 Build 0)  -->
<svg version="1.1" id="Capa_1" xmlns="http://www.w3.org/2000/svg" xmlns:xlink="http://www.w3.org/1999/xlink" x="0px" y="0px"
	 viewBox="0 0 512.001 512.001" style="enable-background:new 0 0 512.001 512.001;" xml:space="preserve">
<circle style="fill:#F7911E;" cx="255.99" cy="474.991" r="26.999"/>
<g>
	<polyline style="fill:#D1D3D4;" points="99.001,244.001 99.001,210.002 67.002,210.002 67.002,251.021 	"/>
	<polygon style="fill:#D1D3D4;" points="412.999,244.001 412.999,210.002 444.998,210.002 444.998,251.021 	"/>
</g>
<g>
	<path style="fill:#4AA7ED;" d="M113.995,244.001h-2.996C55.219,244.001,10,289.22,10,345l0,0
		c0,55.782,45.22,101.002,101.002,101.002h2.992L113.995,244.001z"/>
	<path style="fill:#4AA7ED;" d="M398.005,244.001h2.996c55.781,0,101,45.219,101,101l0,0c0,55.782-45.22,101.002-101.002,101.002
		h-2.992L398.005,244.001z"/>
</g>
<path style="fill:#F9AE18;" d="M455.981,210.002c0-110.275-89.716-199.992-199.992-199.992S55.998,99.727,55.998,210.002h64.076
	c0-74.944,60.971-135.915,135.915-135.915s135.915,60.972,135.915,135.915H455.981z"/>
<path d="M78.33,305.722c5.522,0,10-4.477,10-10v-0.875c0-5.523-4.478-10-10-10s-10,4.477-10,10v0.875
	C68.33,301.246,72.808,305.722,78.33,305.722z"/>
<path d="M78.33,405.155c5.522,0,10-4.477,10-10v-70.049c0-5.523-4.478-10-10-10s-10,4.477-10,10v70.049
	C68.33,400.679,72.808,405.155,78.33,405.155z"/>
<path d="M433.67,284.847c-5.522,0-10,4.477-10,10v0.875c0,5.523,4.478,10,10,10c5.522,0,10-4.477,10-10v-0.875
	C443.67,289.324,439.192,284.847,433.67,284.847z"/>
<path d="M433.67,315.108c-5.522,0-10,4.477-10,10v70.049c0,5.523,4.478,10,10,10c5.522,0,10-4.477,10-10v-70.049
	C443.67,319.585,439.192,315.108,433.67,315.108z"/>
<path d="M454.998,248.051v-28.049h0.983c5.522,0,10-4.477,10-10c0-115.789-94.202-209.991-209.991-209.991
	S45.998,94.213,45.998,210.002c0,5.523,4.478,10,10,10h1.005v28.049C23.026,267.05,0,303.384,0,345.001
	c0,46.232,28.414,85.947,68.693,102.616c2.738,21.608,21.222,38.374,43.561,38.374h108.407c4.695,15.046,18.756,25.999,35.33,25.999
	c20.401,0,36.998-16.597,36.998-36.999c0-20.401-16.597-36.998-36.998-36.998c-17.298,0-31.856,11.934-35.887,27.999h-107.85
	c-8.716,0-16.355-4.687-20.538-11.671c6.266,1.102,12.709,1.681,19.286,1.681h2.992c5.522,0,10-4.477,10-10l0.001-202.002
	c0-2.652-1.054-5.196-2.929-7.071c-1.876-1.875-4.419-2.929-7.071-2.929h-2.996c-0.668,0-1.333,0.014-1.999,0.025v-14.024h11.074
	c5.522,0,10-4.477,10-10c0-69.43,56.486-125.916,125.916-125.916s125.916,56.486,125.916,125.916c0,5.523,4.478,10,10,10H403v14.024
	c-0.666-0.012-1.331-0.025-1.999-0.025h-2.996c-2.652,0-5.195,1.054-7.071,2.929c-1.875,1.875-2.929,4.419-2.929,7.071
	l0.001,202.002c0,5.523,4.478,10,10,10h2.992c61.206,0,111.002-49.795,111.002-111.001C512,303.384,488.975,267.05,454.998,248.051z
	 M255.99,457.992c9.374,0,16.999,7.626,16.999,16.999c0,9.374-7.626,16.999-16.999,16.999c-9.374,0-16.999-7.626-16.999-16.999
	C238.99,465.618,246.616,457.992,255.99,457.992z M103.995,435.736c-46.917-3.591-83.996-42.915-83.996-90.735
	c0-47.823,37.076-87.147,83.997-90.733L103.995,435.736z M89.001,235.957l-12,2.633v-18.588h12V235.957z M255.99,64.087
	c-77.099,0-140.423,60.102-145.576,135.915H66.257C71.48,99.875,154.585,20.01,255.99,20.01S440.5,99.875,445.722,200.003h-44.156
	C396.413,124.188,333.088,64.087,255.99,64.087z M423,220.002h11.999v19.332c-3.911-1.261-7.914-2.315-11.999-3.14V220.002z
	 M408.005,435.736l-0.001-181.47c46.92,3.586,83.997,42.911,83.997,90.733C492.001,392.821,454.922,432.145,408.005,435.736z"/>
<g>
</g>
<g>
</g>
<g>
</g>
<g>
</g>
<g>
</g>
<g>
</g>
<g>
</g>
<g>
</g>
<g>
</g>
<g>
</g>
<g>
</g>
<g>
</g>
<g>
</g>
<g>
</g>
<g>
</g>
</svg>
